<svg xmlns="http://www.w3.org/2000/svg" width="193" height="48" viewBox="0 0 193 48">
  <g fill="none" fill-rule="evenodd">
    <rect width="193" height="48" fill="#FC4C02" rx="4"/>
    <path fill="#FFF" d="M120.739 21.057h-3.411v11.966h-4.492v-11.966h-3.414v-3.791h11.317v3.791zm-7.625-10.607h4.086v4.619h-4.086v-4.619zm19.957 22.574h-4.939l-4.225-11.966h4.568l2.25 7.151 2.215-7.151h4.402l-4.271 11.966zm5.823 0h-4.491v-15.757h4.491v15.757zm16.488-8.629c0 .882-.246 1.701-.582 2.457h-12.023l.186 1.053c.489 2.052 2.001 3.524 4.542 3.524 2.127 0 3.659-1.077 4.316-2.906h4.523c-1.127 4.148-4.836 6.353-8.895 6.353-5.275 0-9.014-3.568-9.014-8.91 0-5.184 3.785-8.91 8.875-8.91 5.253 0 8.072 3.844 8.072 7.339zm-4.32-.45c-.266-1.558-1.547-2.964-3.693-2.964-2.126 0-3.535 1.4-3.953 2.964h7.646zm14.154 9.079v-2.007h-.061c-1.018 1.406-2.585 2.255-4.488 2.255-3.535 0-6.17-2.614-6.17-6.331 0-3.805 2.502-6.42 6.131-6.42 1.963 0 3.32.723 4.364 2.164h.061v-1.914h4.42v12.254h-4.257zm.123-6.128c0-1.802-1.354-3.268-3.375-3.268-1.921 0-3.316 1.556-3.316 3.335 0 1.916 1.396 3.38 3.336 3.38 1.94 0 3.355-1.532 3.355-3.447zm13.197 6.128h-4.482v-15.757h4.482v15.757zm11.758 0h-4.94l-4.225-11.966h4.568l2.25 7.151 2.215-7.151h4.402l-4.27 11.966zm5.823 0h-4.492v-15.757h4.492v15.757zm16.488-8.629c0 .882-.246 1.701-.582 2.457h-12.022l.186 1.053c.489 2.052 2.001 3.524 4.541 3.524 2.128 0 3.66-1.077 4.316-2.906h4.524c-1.127 4.148-4.836 6.353-8.895 6.353-5.275 0-9.015-3.568-9.015-8.91 0-5.184 3.785-8.91 8.875-8.91 5.253 0 8.072 3.844 8.072 7.339zm-4.32-.45c-.266-1.558-1.547-2.964-3.693-2.964-2.127 0-3.535 1.4-3.953 2.964h7.646z"/>
    <path fill="#FFF" d="M47.79 32.868h5.362l-8.03-16.141-8.067 16.141h5.326l2.741-5.696h0l2.668 5.696zm-9.356-9.05l-2.612-5.467h-5.2l5.12 10.354 5.253 10.596h5.378l-2.73-5.327h0l-5.209-10.156z"/>
  </g>
</svg>